<svg xmlns="http://www.w3.org/2000/svg" width="93" height="35.8" viewBox="-1 -1 93 35.8"><g fill="#0096D3"><path d="M16.9 7c5.4-.1 9.6-1.7 9.6-3.4 0-.5-.4-.9-1-1.3C23 .8 20 0 16.9 0 13.6 0 10.6.9 8 2.5c-.8.5-1.2 1-1.1 1.6 0 1.7 4.5 3 10 2.9zM11.7 12.5c1.8.2 6.5.9 10.2.6 7.4-.6 9-3.2 9-4.9 0-.5-.2-1.1-.5-1.5-.7-.9-1.4-1.7-2.2-2.4.2.2.3.5.3.7.1 1.1-1.8 2.7-5.6 3.9-2.4.8-5.5 1.5-9.3 1.5-6.5 0-8.8-2.5-8.8-4 0-.2 0-1.5 1.5-2.7-1.4 1.1-2.6 2.4-3.6 3.9-.1.2-.2.4-.2.6 0 1.5 3.9 3.6 9.2 4.3zM33.4 12.9c.1.6.2 1.1.2 1.4 0 .6.1 5.8-11.8 8.4-7.1 1.6-10.1 1.5-15 0C2.5 21.3.2 18.2.1 15.5c0 .5-.1.9-.1 1.4V18c.3 2.2 3.2 4.6 6.2 5.8 3.7 1.5 9.5 2.6 12.8 2.5 11.9-.4 14.6-6.5 14.9-8.2v-1.2c-.1-1.4-.2-2.7-.5-4zM16.1 32.1c-2.6 0-8.2-.4-11.9-3.9 3.1 3.4 7.6 5.6 12.6 5.6 6.5 0 12.1-3.7 15-9-.8 1.6-4.7 7.3-15.7 7.3zM16.5 28.7c-2.1.2-14.6.8-16.4-9.1.3 1.6.7 3.1 1.4 4.5.8 1.4 2.7 3.3 5.5 4.5 14.6 6 23.6-1.1 25.3-4.7.7-1.5 1.2-3.2 1.4-4.9-.2 1.3-1.5 8-17.2 9.7zM8.8 18.8c5.7 1.4 12.2 1.3 13.1 1.3 10.3-.9 11.3-6.1 11.3-6.9 0-.2 0-.7-.2-1.4-.4-1.3-1-2.6-1.7-3.7.6 1 .5 1.4.5 1.5 0 3.4-6.4 5.7-10.6 6.8-11 3-19.9-1.1-19.9-5.2 0-.7.1-1.2.3-1.7-.4.9-.8 1.8-1.1 2.8-.1.3-.1.7 0 1.1.7 2.6 4.5 4.4 8.3 5.4z"/></g><g fill="#444"><path d="M81.3 27.4l-3-3.1c-.1-.1-.1-.2 0-.3l2.3-3.8c.1-.1.1-.2.1-.2 0-.2-.2-.4-.4-.4h-1.7c-.2 0-.3.1-.4.2l-1.4 2.5c-.1.1-.2.1-.3 0l-2.3-2.4-.1-.1c0-.1 0-.1.1-.2 1.3-.8 2.8-1.9 2.8-3.9 0-2.3-1.6-3.8-4.1-3.8-2.4 0-4.2 1.6-4.2 4 0 1 .4 2.1 1.3 3.2 0 0 .1.1 0 .2 0 .1 0 .1-.1.2-2 1.1-3 2.6-3 4.4 0 3.1 2.6 4.7 5.2 4.7 1.8 0 3.1-.7 4.4-2.2.1-.1.2-.1.3 0l1.6 1.7c.1.1.2.1.3.1h2.2c.2 0 .4-.2.4-.4.2-.2.1-.3 0-.4zm-8.4-13.2c1 0 1.5.7 1.5 1.5 0 1-.9 1.6-1.9 2.1h-.4c-.5-.5-1-1.3-1-1.9.1-1 .8-1.7 1.8-1.7zM75 24.7c-.8.9-1.6 1.5-2.9 1.5-1.5 0-2.6-1-2.6-2.4 0-1.2.5-1.9 2-2.8.1-.1.2 0 .3 0l3.1 3.3c.1.1.1.1.1.2.1.1.1.1 0 .2zM65 26.2c-2.5 0-3.7-1.3-3.7-3.8V15c0-.1.1-.2.2-.2h3.7c.2 0 .4-.2.4-.4v-1.6c0-.2-.2-.4-.4-.4h-3.7c-.1 0-.2-.1-.2-.2V8.8c0-.2-.2-.4-.4-.5h-.1l-1.9.1c-.2 0-.4.2-.4.4v3.3c0 .1-.1.2-.2.2h-2.4c-.2 0-.4.2-.4.4v1.6c0 .1.1.2.1.3.1.1.2.1.3.1h2.3c.1 0 .2.1.2.2v7.9c0 4.2 3.2 5.7 6 5.7h.6s.4-.2.4-.4v-1.5c.1-.2-.1-.4-.4-.4zM54.1 26.4v-8.6c0-4.1-2.9-5.6-5.6-5.6-2.2 0-4.1.6-5.4 1.4-.1.1-.2.2-.2.3s0 .2.1.3l1 1.4c.1.2.4.2.6.1l.1-.1c1-.6 2.2-1 3.3-1 3.4 0 3.3 2.6 3.3 3 0 .2-.1.2-.2.2h-.5c-2.6-.1-9.2.8-9.2 6 0 3.1 2.6 4.6 5 4.6 2.3 0 4.2-.9 5.1-2 0 0 .1 0 .1.1 0 .4 0 1.5.4 1.6.2.1 1.8 0 2 0s.4-.2.4-.4c0 .1-.3-.7-.3-1.3zm-2.7-5c-.4 2.7-1.7 4.2-4.1 4.6-1.7.3-3.3-.4-3.4-2.3-.1-2 2.3-3.7 6.6-3.5h.5s.3.1.4.2c.1.2.1.4 0 1zM90.3 26.2s-.1 0 0 0c-2.5 0-3.7-1.3-3.7-3.8V15c0-.1.1-.2.2-.2h3.8c.2 0 .4-.2.4-.4v-1.6c0-.2-.2-.4-.4-.4h-3.7c-.1 0-.2-.1-.2-.2V8.8c0-.2-.2-.4-.4-.5h-.1l-1.9.1c-.2 0-.4.2-.4.4v3.3c0 .1-.1.2-.2.2h-2.4c-.2 0-.4.2-.4.4v1.6c0 .1.1.2.1.3.1.1.2.1.3.1h2.3c.1 0 .2.1.2.2v7.9c0 4.2 3.2 5.7 6 5.7h.6s.4-.2.4-.4v-1.5c-.1-.2-.3-.4-.5-.4z"/></g></svg>