<svg xmlns="http://www.w3.org/2000/svg" width="77.7" height="163.3" viewBox="-1 -1 77.7 163.3"><path fill="#232323" d="M64.2.8h-2.1V.4c0-.2-.2-.4-.5-.4H51.2c-.3 0-.5.2-.5.4v.4H12.4C6 .8.8 6 .8 12.4v10.5H.4c-.2 0-.4.2-.4.5v6c0 .3.2.5.4.5h.4V38H.4c-.2 0-.4.2-.4.4V43c0 .2.2.4.4.4h.4v7.9H.4c-.2 0-.4.2-.4.4v4.6c0 .2.2.4.4.4h.4v93c0 6.4 5.2 11.6 11.6 11.6h51.7c6.4 0 11.6-5.2 11.6-11.6V12.6C75.9 6 70.6.8 64.2.8z"/><path fill="#0A0A0A" d="M38.3 141.9c3.9 0 7.1 3.2 7.1 7.1 0 3.9-3.2 7.1-7.1 7.1s-7.1-3.2-7.1-7.1c0-3.9 3.2-7.1 7.1-7.1z"/><path fill="#5B6675" d="M40.1 151.7h-3.5c-.5 0-1-.4-1-1v-3.5c0-.5.4-1 1-1h3.5c.5 0 1 .4 1 1v3.5c-.1.6-.5 1-1 1z"/><path fill="#2D2D2D" d="M44.2 13.6H32.4c-.9 0-1.6.7-1.6 1.6 0 .9.7 1.6 1.6 1.6-.7 0-1.3-.5-1.5-1.1h1.3c-.1-.1-.2-.3-.2-.5 0-.4.4-.8.9-.8h10.8c.5 0 .9.4.9.8 0 .2-.1.4-.2.5.8 0 1.3.1 1.3.1.1-.2.1-.4.1-.6 0-.9-.7-1.6-1.6-1.6z"/><path fill="#6C7582" d="M44.4 15.7c-.2.2-.4.3-.7.3H32.9c-.3 0-.5-.1-.7-.3h-1.3c.2.6.8 1.1 1.5 1.1l11.8.1c.7 0 1.3-.5 1.5-1.1 0 0-.5-.1-1.3-.1z"/><path fill="#2D2D2D" d="M38.4 9c-.7 0-1.3.6-1.3 1.3s.6 1.3 1.3 1.3 1.3-.6 1.3-1.3S39.1 9 38.4 9zm0 1.9c-.3 0-.6-.3-.6-.6s.3-.6.6-.6.6.3.6.6-.3.6-.6.6z"/><path fill="#0A0A0A" d="M40 151.1h-3.4c-.2 0-.4-.2-.4-.4v-3.4c0-.2.2-.4.4-.4H40c.2 0 .4.2.4.4v3.4c0 .2-.1.4-.4.4z"/><path fill="#3C3D3F" d="M6.5 23.7h63.8V137H6.5z"/><path fill="#464749" d="M6.5 104.1V23.7h41.6z"/><path fill="#9E9E9F" d="M43.4 49.7c2.5 0 4.1 2.4 4.1 2.4S45 53.5 45 56.4c0 3.4 3.1 4.4 3.1 4.4s-2.4 5.8-5.2 5.8c-1.5 0-1.6-.9-3.7-.9-1.8 0-2.4.9-3.7.9-2.6 0-5.9-5.6-5.9-10.2 0-4.7 3.4-6.6 5.5-6.6 1.9 0 2.6 1.1 4.1 1.1 1.3-.1 2.3-1.2 4.2-1.2zm-.5-4.8c.4 2.3-1.8 5.2-4.3 5.1-.3-2.9 2.4-4.9 4.3-5.1z" enable-background="new"/></svg>