<svg xmlns="http://www.w3.org/2000/svg" width="78.2" height="164.4" viewBox="-1 -1 78.2 164.4"><path stroke="#3E3D40" stroke-miterlimit="10" fill="none" d="M76.2 143.9H.6"/><path fill="#232323" d="M64.4.9h-2.1V.4c0-.2-.2-.4-.5-.4H51.4c-.3 0-.5.2-.5.4v.5H12.4C5.9.9.7 6.1.7 12.6v10.3H.4c-.2 0-.4.2-.4.5v10c0 .3.2.5.4.5h.3v4H.4c-.2 0-.4.2-.4.5v10c0 .3.2.5.4.5h.3v101.8c0 6.5 5.2 11.7 11.7 11.7h52c6.5 0 11.7-5.2 11.7-11.7V12.8C76.1 6.1 70.9.9 64.4.9z"/><path fill="#3D3D3D" d="M38.7 9.5c-.7 0-1.3.6-1.3 1.3s.6 1.3 1.3 1.3 1.3-.6 1.3-1.3-.6-1.3-1.3-1.3zm0 1.9c-.3 0-.6-.3-.6-.6s.3-.6.6-.6.6.3.6.6-.3.6-.6.6z"/><path fill="#0A0A0A" d="M38.4 142.7c3.9 0 7.1 3.2 7.1 7.1 0 3.9-3.2 7.1-7.1 7.1s-7.1-3.2-7.1-7.1c.1-3.9 3.2-7.1 7.1-7.1z"/><path fill="#5B6675" d="M40.2 152.5h-3.5c-.5 0-1-.4-1-1V148c0-.5.4-1 1-1h3.5c.5 0 1 .4 1 1v3.5c0 .6-.5 1-1 1z"/><path fill="#0A0A0A" d="M40.2 151.9h-3.4c-.2 0-.4-.2-.4-.4v-3.4c0-.2.2-.4.4-.4h3.4c.2 0 .4.2.4.4v3.4c0 .2-.2.4-.4.4z"/><path fill="#3C3D3F" d="M6.6 24.2h63.8v113.3H6.6z"/><path fill="#464749" d="M6.6 104.7V24.2h41.6z"/><path fill="#9E9E9F" d="M42.9 49.3c2.5 0 4.1 2.4 4.1 2.4s-2.5 1.3-2.5 4.2c0 3.4 3.1 4.4 3.1 4.4s-2.4 5.8-5.2 5.8c-1.5 0-1.6-.9-3.7-.9-1.8 0-2.4.9-3.7.9-2.6 0-5.9-5.6-5.9-10.2 0-4.7 3.4-6.6 5.5-6.6 1.9 0 2.6 1.1 4.1 1.1 1.3 0 2.3-1.1 4.2-1.1zm-.5-4.8c.4 2.3-1.8 5.2-4.3 5.1-.3-2.9 2.4-4.9 4.3-5.1z" enable-background="new"/></svg>