<svg xmlns="http://www.w3.org/2000/svg" width="84.2" height="163.9" viewBox="-1 -1 84.2 163.9"><circle fill="#000100" cx="67.3" cy="5.8" r="1.4"/><linearGradient id="a" gradientUnits="userSpaceOnUse" x1="68.427" y1="191.073" x2="67.082" y2="192.417" gradientTransform="matrix(1 0 0 -1 0 198)"><stop offset="0" stop-color="#fff"/><stop offset="1"/></linearGradient><circle fill="url(#a)" cx="67.3" cy="5.8" r=".6"/><radialGradient id="b" cx="200.55" cy="350.055" r=".488" gradientTransform="matrix(-.949 .317 .317 .949 146.928 -389.571)" gradientUnits="userSpaceOnUse"><stop offset="0" stop-color="#fff"/><stop offset=".066" stop-color="#F9FDFB"/><stop offset=".157" stop-color="#E7F7EF"/><stop offset=".262" stop-color="#CAEEDB"/><stop offset=".376" stop-color="#A2E1C0"/><stop offset=".479" stop-color="#78D4A3"/><stop offset="1"/></radialGradient><circle fill="url(#b)" cx="67.3" cy="5.8" r=".4"/><path fill="#282727" d="M73.6 2.1C71.4 1.4 68.8.9 65.5.5 61.6.1 45.9 0 41.1 0c-4.7 0-20.4.1-24.4.5-3.4.3-5.9.8-8.1 1.6C2.9 4-.2 8.8 0 15.5V145c0 6.9 3.3 12.3 9.1 14.8 4.2 1.8 9.5 2 19.6 2.1h24.8c10.1 0 15.3-.3 19.6-2.1 5.8-2.5 9.1-7.9 9.1-14.8V15.5c.2-6.7-2.9-11.4-8.6-13.4z"/><path fill="#C8C8C8" d="M40.6 158.3c-4 0-7.4-.1-8.5-.5-1.7-.7-1.6-2.7-1.5-3.6.1-1.7.9-2.5 2.4-2.8.4-.1 1.6-.1 2-.1 4.7-.1 12.6 0 13.6.1 1.6.2 2.3 1.1 2.4 2.8 0 .9.2 2.8-1.5 3.6-1.2.5-6.2.5-8.9.5zm-.1-6.1c-.9 0-6.4 0-7.3.2-1.1.2-1.5.6-1.6 1.8-.1 1.5.2 2.3.9 2.6.7.3 3.5.4 4.3.4h7.4c.9 0 4.1-.1 4.8-.4.8-.3 1-1.1.9-2.6-.1-1.2-.5-1.7-1.6-1.8-.6-.1-7-.2-7.8-.2z"/><g fill="#E0E0E0"><path d="M41.8 10.4l-.4-.2s-.4-.2-.5-.3c0 0-.2-.2-.1-.3 0 0 0-.1.2-.1 0 0 .2 0 .2.2v.3h.8v-.4s.1-.6-.9-.6c0 0-.8-.1-1 .4 0 0-.1.1-.1.4v.2s0 .3.1.5c0 0 .1.1.3.2l.6.3s.2.1.2.4c0 0 0 .2-.3.2 0 0-.2 0-.2-.2v-.3h-.8v.4s0 .7 1.1.7c0 0 1 0 1.1-.7v-.3c.1-.1.1-.6-.3-.8zM37.8 9l-.3 1.7h-.1L37.2 9h-1.4v3h.8V9.7L37 12h.9l.4-2.2.1 2.2h.8l-.1-3zM33.1 9l-.6 3h.9l.3-2.3h.1l.3 2.3h.8l-.5-3zM50.9 10.3v.4h.2v.5c0 .2-.2.2-.2.2-.2 0-.2-.2-.2-.2V9.5c0-.2.2-.2.2-.2.2 0 .2.2.2.2v.3h.8c0-.5-.1-.6-.1-.6-.2-.4-.9-.4-.9-.4-1.2 0-1 .9-1 .9v1.6c0 .8 1.2.7 1.2.7.8-.1.9-.4.9-.8v-.7c0-.1-.1-.2-.2-.2h-.9zM48.2 10.8L47.4 9h-1v3h.8l-.1-1.8h.1L48 12h1V9h-.8zM44.5 11.3s0 .2-.2.2c0 0-.2 0-.2-.2V9h-.9v2.3s-.1.9 1.1.9c0 0 1.1 0 1.1-.8V9.1h-.8l-.1 2.2zM31.4 10.4l-.4-.2s-.4-.2-.5-.3c0 0-.2-.2-.1-.3 0 0 0-.1.2-.1 0 0 .2 0 .2.2v.3h.8v-.4s.1-.6-.9-.6h-.2s-.6 0-.8.4c0 0-.1.1-.1.4v.2s0 .3.1.5c0 0 .1.1.3.2l.6.3s.2.1.2.4c0 0 0 .2-.3.2 0 0-.2 0-.2-.2v-.3h-.7v.4s0 .7 1.1.7c0 0 1 0 1.1-.7v-.3c0-.1 0-.6-.4-.8z"/></g><path fill="#3C3D3F" d="M73 147.7H9.9c-3.3 0-6-2.7-6-6V21.4c0-3.3 2.7-6 6-6H73c3.3 0 6 2.7 6 6v120.4c0 3.3-2.7 5.9-6 5.9z"/><path fill="#464749" d="M3.9 102.2V21.4c0-3.3 2.7-6 6-6h37.4L3.9 102.2z"/><g fill="#9E9E9F"><path d="M44.1 56.6s-.6-.4-1-.5c0 0-1.2-.5-1.4-.8 0 0-.4-.4-.2-.9 0 0 .1-.3.6-.3 0 0 .6 0 .6.5v.7h2.2v-1.1s.2-1.7-2.6-1.8c0 0-2.2-.1-2.8 1 0 0-.2.3-.2 1.2v.7s0 .8.4 1.3c0 0 .2.3.8.7 0 0 1.1.6 1.8.9 0 0 .7.4.6 1 0 0-.1.6-.7.6 0 0-.6 0-.6-.6v-.7h-2.4v1s-.1 2 3 2c0 0 2.9.1 3-2v-.8c-.1-.2 0-1.4-1.1-2.1zM32.8 52.7l-.8 4.6h-.2l-.7-4.6h-3.7l-.2 8.4h2.2l.1-6.3h.1l1.2 6.3h2.3l1.2-6.3h.1l.1 6.3h2.2l-.3-8.4zM19.7 52.7l-1.5 8.4h2.4l.9-6.5h.2l.8 6.5h2.4l-1.5-8.4zM69.3 56.5v1.2h.6V59c0 .7-.6.7-.6.7-.7 0-.7-.6-.7-.6v-4.6c0-.5.6-.5.6-.5.6 0 .6.6.6.6v.7H72c.1-1.4-.2-1.7-.2-1.7-.6-1.2-2.6-1.2-2.6-1.2-3.2 0-2.9 2.5-2.9 2.5v4.5c.1 2.3 3.2 2.1 3.3 2.1 1.4-.2 1.8-.6 1.8-.6.4-.3.5-.7.5-.7.1-.2.1-1 .1-1v-2.6l-2.7-.1zM61.9 57.8h-.1l-2.3-5.1h-2.7v8.4H59l-.1-5.1h.1l2.3 5.1H64v-8.4h-2.3zM51.5 59s0 .7-.6.7c0 0-.7 0-.7-.7v-6.4h-2.4v6.3s-.2 2.4 3.1 2.4c0 0 2.9 0 2.9-2.3v-6.3h-2.4V59h.1zM15.1 56.6s-.6-.4-1-.5c0 0-1.2-.5-1.4-.8 0 0-.4-.4-.2-.9 0 0 .1-.3.6-.3 0 0 .6 0 .6.5v.7h2.2v-1.1s.2-1.7-2.6-1.8h-.5s-1.7.1-2.3 1c0 0-.2.3-.2 1.2v.7s0 .8.4 1.3c0 0 .2.3.8.7 0 0 1.1.6 1.8.9 0 0 .7.4.6 1 0 0-.1.6-.7.6 0 0-.6 0-.6-.6v-.7h-2.4v1s-.1 2 3 2c0 0 2.9.1 3-2v-.8c-.1-.2 0-1.4-1.1-2.1z"/></g></svg>