<svg xmlns="http://www.w3.org/2000/svg" width="115.8" height="21.1" viewBox="-1 -1 115.8 21.1"><path fill="#444" d="M.2 12.3V8.5H4v3.8H.2z"/><path fill="#EB278D" d="M9.3 14.6c0 1.2.2 2 .5 2.4.3.3.8.5 1.5.6h1.1v1.1H3.2v-1.1c.7 0 1.3 0 1.6-.1.7-.2 1.2-.6 1.3-1.2.1-.4.1-.9.1-1.6V.8c-1.6 0-2.8.6-3.7 1.6-.8.9-1.3 2.4-1.5 4.4l-1-.2L.2 0h15l.2 6.6-1 .2c-.2-2-.7-3.4-1.5-4.4C12 1.4 10.8.9 9.2.8l.1 13.8z"/><path fill="#444" d="M11.7 12.3V8.5h3.8v3.8h-3.8zM23.2 12.3V8.5H27v3.8h-3.8z"/><g fill="#444"><path d="M48.9 18.6h-.8L43.3 2.1V14c0 1.2 0 1.9.1 2.3.3.9.9 1.4 1.9 1.4h.4v.9h-5.6v-.9h.4c.4 0 .8-.1 1.1-.4s.5-.7.6-1.2c.1-.4.1-1.1.1-2.1V3.5c0-.6 0-1-.1-1.2-.1-.4-.3-.7-.7-.8-.2-.1-.5-.1-.9-.1h-.5V.5h5.2l3.9 13.3 4-13.3h5.3v.9h-.4c-.7 0-1.2.1-1.4.4-.2.2-.3.4-.3.7-.1.4-.1.9-.1 1.5v11c0 .9 0 1.5.1 1.8.2.6.8.8 1.7.8h.4v.9h-6.8v-.9h.2c.7 0 1.2-.1 1.4-.4.2-.2.3-.4.3-.8.1-.4.1-.9.1-1.5V2l-4.8 16.6zM64.2 5.8c1.7 0 3.1.7 4.1 2 .9 1.2 1.4 2.7 1.4 4.6s-.5 3.5-1.4 4.7c-1 1.3-2.4 2-4.2 2-1.7 0-3-.7-4.1-2-.9-1.2-1.4-2.7-1.4-4.6S59.1 9 60 7.9c1.1-1.5 2.5-2.1 4.2-2.1zm0 .8c-.6 0-1.2.3-1.7.8-.8.8-1.2 2.5-1.2 4.9 0 2 .2 3.5.7 4.5.4.9 1.1 1.4 2.1 1.4 1.9 0 2.9-1.9 2.9-5.8 0-1.8-.2-3.1-.6-4.1-.3-.6-.6-1-1.1-1.3-.4-.3-.7-.4-1.1-.4zM74.2 7.9c.2-.5.5-.9.9-1.2.7-.5 1.4-.8 2.3-.8 1.3 0 2.4.5 3.2 1.4 1.1 1.2 1.6 2.8 1.6 4.9 0 2-.5 3.6-1.5 4.9-.9 1.2-2.1 1.8-3.6 1.8-.8 0-1.5-.2-2.2-.6-.1-.1-.4-.3-.9-.7-.2-.1-.3-.2-.5-.2s-.3.1-.5.4c-.2.2-.4.5-.6.9h-.9c.1-.3.1-.4.1-.5.1-.4.1-1.1.1-2.2V3.5c0-1-.1-1.6-.3-1.8-.2-.2-.5-.3-1-.3h-.2V.5l3.9-.2.1 7.6zM77 6.8c-.6 0-1.1.2-1.7.7-1 .9-1.4 2.5-1.4 4.7 0 1.8.2 3.1.7 4.1.2.5.6.9 1 1.2.4.2.8.4 1.3.4 1.8 0 2.7-1.9 2.7-5.7 0-1.7-.2-3.1-.7-4.1-.4-.8-1-1.3-1.9-1.3zM87.3 6v9.6c0 1 .1 1.6.3 1.9.2.2.5.3 1 .3h.4v.8h-5.9v-.8h.4c.5 0 .9-.1 1-.3.2-.3.3-.9.3-1.9V9.2c0-1-.1-1.6-.3-1.8-.2-.2-.5-.3-1-.3h-.3v-.8l4.1-.3zM85.9.4c.4 0 .7.1 1 .4s.4.6.4 1-.1.8-.4 1c-.3.3-.6.4-1.1.4-.4 0-.8-.1-1-.4-.3-.3-.4-.6-.4-1s.1-.8.4-1.1c.4-.2.7-.3 1.1-.3zM94.2.4v15.2c0 1 .1 1.6.3 1.9.2.2.5.3 1 .3h.4v.8H90v-.8h.4c.5 0 .9-.1 1-.3.2-.3.3-.9.3-1.9V3.5c0-1-.1-1.6-.3-1.8-.2-.2-.5-.3-1-.3h-.3V.5l4.1-.1zM106.8 12.3h-7.4c0 1.7.2 3 .5 3.9.5 1.2 1.3 1.8 2.5 1.8.9 0 1.7-.4 2.3-1.1.3-.4.7-1 1-1.7l.8.4c-1.1 2.3-2.7 3.4-4.6 3.4-1.4 0-2.6-.5-3.5-1.5-1.1-1.2-1.7-3-1.7-5.3 0-2.1.6-3.8 1.7-5.1.9-1 2-1.5 3.2-1.5 1.9 0 3.3.9 4.2 2.8.6 1.2.9 2.4 1 3.9zm-2.5-1c0-1.1-.1-2-.4-2.7-.4-1.3-1.1-1.9-2-1.9-1 0-1.8.8-2.2 2.3-.2.6-.3 1.4-.3 2.3h4.9zM34.6 12.3V8.5h3.8v3.8h-3.8zM110 12.3V8.5h3.8v3.8H110z"/></g></svg>