<svg xmlns="http://www.w3.org/2000/svg" width="98" height="27.4" viewBox="-1 -1 98 27.4"><path fill="#444" d="M44.1 4l.7-4h5.6l-.7 4zM2.4 19.7L0 5.8h5.6l.9 8.8 4-8.8h5.3L8.6 19.7zM79.1 19.7l2.5-14h5.1l-.4 2.2c1.5-1.7 3.1-2.6 5.2-2.6 3.7 0 5 2.2 4.4 6l-1.5 8.4h-5.5l1.3-7.4c.2-1.4.1-2.6-1.5-2.6-1.7 0-2.4 1.1-2.7 2.9l-1.3 7.1h-5.6zM29.9 19.7l2.5-14h5l-.5 2.8h.1c1.2-2.2 2.7-3.2 4.9-3.2.2 0 .5.1.7.1l-1 5.5c-.4-.1-.7-.2-1.1-.2-2.3 0-3.6 1.1-4.1 4.1l-.9 4.8-5.6.1zM46.9 19.7h-5.5l2.4-13.9h5.6zM29.8 14c1-5.1-1.5-8.6-6.7-8.6-4.5 0-8.4 2.9-9.2 7.5-.8 4.7 2.2 7.2 6.7 7.2 3.3 0 7-1.1 8.5-4.6h-5.3c-.5.8-1.4 1.2-2.3 1.2-1.5 0-2.6-1.1-2.3-2.7h10.6zm-7.1-5.2c1.3 0 2.2 1.1 2 2.4h-5c.2-1.5 1.3-2.4 3-2.4zM72.5 5.4c-4.7 0-8.4 2.7-9.2 7.5s2.2 7.2 6.7 7.2 8.4-2.4 9.3-7.5c.7-4.3-1.9-7.2-6.8-7.2zm1.4 7.2c-.5 2.6-1.6 3.8-3.1 3.8-1.4 0-2.2-1.1-1.7-3.8.3-1.6 1.2-3.5 3.1-3.5 1.4-.1 2 1.5 1.7 3.5z"/><path fill="#FF2127" d="M50.9 6.1h13.2l-.6 3.6-8.9 11.6h39.5l-.7 4.1H47.6l.6-3.6 8.9-11.6h-7z"/></svg>